# xmcd
#
# Track frame offsets: 
#        150
#        15247
#        30628
#        45743
#        58322
#        71479
#        86495
#        101363
#        117452
#        130575
#        144329
#        158217
#        173659
#        191475
#        203955
#        221369
#        236305
#        250553
#        266785
#        284067
#        297068
#
# Disc length: 4163 seconds
#
# Revision: 2
# Processed by: cddbd v1.5.2PL0 Copyright (c) Steve Scherf et al.
# Submitted via: ExactAudioCopyFreeDBPlugin 1.0
#
DISCID=28104115
DTITLE=堺正章 - ゴールデン☆ベスト 堺正章
DYEAR=2011
DGENRE=JPop
TTITLE0=さらば恋人
TTITLE1=青空は知らない
TTITLE2=涙から明日へ
TTITLE3=幸福への招待
TTITLE4=運がよければいいことあるさ
TTITLE5=まごころ
TTITLE6=恋人時代
TTITLE7=街の灯り
TTITLE8=たそがれに別れを
TTITLE9=早春の便り
TTITLE10=あじさいの詩
TTITLE11=枯葉の宿
TTITLE12=明日の前に
TTITLE13=行きずりの男
TTITLE14=苺の季節
TTITLE15=あのころ君は
TTITLE16=小さな声で
TTITLE17=裏がえし
TTITLE18=今では遅すぎる
TTITLE19=どうにかなるさ
TTITLE20=遠くへ行きたい
EXTD=Powerd by gracenote music web API
EXTT0=
EXTT1=
EXTT2=
EXTT3=
EXTT4=
EXTT5=
EXTT6=
EXTT7=
EXTT8=
EXTT9=
EXTT10=
EXTT11=
EXTT12=
EXTT13=
EXTT14=
EXTT15=
EXTT16=
EXTT17=
EXTT18=
EXTT19=
EXTT20=
PLAYORDER=
